<?xml version="1.0" encoding="UTF-8" standalone="no"?>
<!-- Created with Inkscape (http://www.inkscape.org/) -->

<svg
   xmlns:dc="http://purl.org/dc/elements/1.1/"
   xmlns:cc="http://creativecommons.org/ns#"
   xmlns:rdf="http://www.w3.org/1999/02/22-rdf-syntax-ns#"
   xmlns:svg="http://www.w3.org/2000/svg"
   xmlns="http://www.w3.org/2000/svg"
   xmlns:xlink="http://www.w3.org/1999/xlink"
   xmlns:sodipodi="http://sodipodi.sourceforge.net/DTD/sodipodi-0.dtd"
   xmlns:inkscape="http://www.inkscape.org/namespaces/inkscape"
   width="132.7654mm"
   height="132.7654mm"
   viewBox="0 0 470.42857 470.42857"
   id="svg4304"
   version="1.1"
   inkscape:version="0.91 r13725"
   sodipodi:docname="rtxi-logo-square.svg">
  <defs
     id="defs4306">
    <linearGradient
       inkscape:collect="always"
       xlink:href="#outerBackgroundGradient-6"
       id="linearGradient4254"
       x1="35"
       y1="156"
       x2="253"
       y2="156"
       gradientUnits="userSpaceOnUse"
       gradientTransform="matrix(0,-2.1480757,2.1480757,0,87.757343,1161.6851)" />
    <linearGradient
       id="outerBackgroundGradient-6">
      <stop
         style="stop-color:#e0e0e0;stop-opacity:1;"
         offset="0"
         id="stop3864-8-6-3" />
      <stop
         style="stop-color:#f7f7f7;stop-opacity:1;"
         offset="1"
         id="stop3866-9-1-8" />
    </linearGradient>
    <linearGradient
       gradientTransform="matrix(0,-1,1,0,-1.5e-6,47.999998)"
       gradientUnits="userSpaceOnUse"
       x2="47"
       x1="1"
       id="linearGradient3764">
      <stop
         id="stop4289"
         style="stop-color:#e1e1e1;stop-opacity:1" />
      <stop
         id="stop4291"
         style="stop-color:#ebebeb;stop-opacity:1"
         offset="1" />
    </linearGradient>
  </defs>
  <sodipodi:namedview
     id="base"
     pagecolor="#ffffff"
     bordercolor="#666666"
     borderopacity="1.0"
     inkscape:pageopacity="0.0"
     inkscape:pageshadow="2"
     inkscape:zoom="0.98994949"
     inkscape:cx="163.07143"
     inkscape:cy="353.18379"
     inkscape:document-units="px"
     inkscape:current-layer="layer1"
     showgrid="false"
     fit-margin-top="0"
     fit-margin-left="0"
     fit-margin-right="0"
     fit-margin-bottom="0"
     inkscape:window-width="1920"
     inkscape:window-height="1057"
     inkscape:window-x="0"
     inkscape:window-y="0"
     inkscape:window-maximized="1" />
  <metadata
     id="metadata4309">
    <rdf:RDF>
      <cc:Work
         rdf:about="">
        <dc:format>image/svg+xml</dc:format>
        <dc:type
           rdf:resource="http://purl.org/dc/dcmitype/StillImage" />
        <dc:title></dc:title>
      </cc:Work>
    </rdf:RDF>
  </metadata>
  <g
     inkscape:label="Layer 1"
     inkscape:groupmode="layer"
     id="layer1"
     transform="translate(-187.64286,-617.14792)">
    <path
       inkscape:connector-curvature="0"
       style="color:#bebebe;display:inline;overflow:visible;visibility:visible;fill:url(#linearGradient4254);fill-opacity:1;fill-rule:nonzero;stroke:none;stroke-width:2;marker:none;enable-background:accumulate"
       d="m 293.97261,617.14792 c -58.92445,0 -106.32975,47.4053 -106.32975,106.32975 l 0,257.76907 c 0,58.92446 47.4053,106.32976 106.32975,106.32976 l 257.76907,0 c 58.92445,0 106.32974,-47.4053 106.32974,-106.32976 l 0,-257.76907 c 0,-58.92445 -47.40529,-106.32975 -106.32974,-106.32975 l -257.76907,0 z"
       id="path4200" />
    <g
       id="g24"
       transform="matrix(1.3970789,0,0,-1.3970789,266.37677,856.32556)">
      <path
         d="M 0,0 5.812,0 C 16.711,0 22.16,5.69 22.16,17.072 22.16,28.454 16.711,34.147 5.812,34.147 L 0,34.147 0,0 Z m -28.771,-55.874 0,99.175 42.648,0 c 11.091,0 19.955,-2.338 26.592,-7.012 6.635,-4.674 9.953,-10.934 9.953,-18.78 0,-12.013 -7.119,-19.836 -21.36,-23.468 7.312,-2.713 12.047,-5.692 14.204,-8.937 2.154,-3.245 3.62,-9.542 4.394,-18.889 0.92,-11.142 2.785,-18.505 5.596,-22.089 l -31.242,0 c -1.987,4.602 -2.979,10.341 -2.979,17.22 l -0.144,5.884 -0.146,7.412 c 0,11.431 -4.602,17.145 -13.806,17.145 l -4.939,0 0,-47.661 -28.771,0 z"
         style="fill:#b74138;fill-opacity:1;fill-rule:nonzero;stroke:none"
         id="path26"
         inkscape:connector-curvature="0" />
    </g>
    <g
       id="g28"
       transform="matrix(1.3970789,0,0,-1.3970789,266.37677,856.32556)">
      <path
         d="M 0,0 5.812,0 C 16.711,0 22.16,5.69 22.16,17.072 22.16,28.454 16.711,34.147 5.812,34.147 L 0,34.147 0,0 Z m -28.771,-55.874 0,99.175 42.648,0 c 11.091,0 19.955,-2.338 26.592,-7.012 6.635,-4.674 9.953,-10.934 9.953,-18.78 0,-12.013 -7.119,-19.836 -21.36,-23.468 7.312,-2.713 12.047,-5.692 14.204,-8.937 2.154,-3.245 3.62,-9.542 4.394,-18.889 0.92,-11.142 2.785,-18.505 5.596,-22.089 l -31.242,0 c -1.987,4.602 -2.979,10.341 -2.979,17.22 l -0.144,5.884 -0.146,7.412 c 0,11.431 -4.602,17.145 -13.806,17.145 l -4.939,0 0,-47.661 -28.771,0 z"
         style="fill:none;stroke:#b74138;stroke-width:1;stroke-linecap:butt;stroke-linejoin:miter;stroke-miterlimit:4;stroke-dasharray:none;stroke-opacity:1"
         id="path30"
         inkscape:connector-curvature="0" />
    </g>
    <g
       id="g32"
       transform="matrix(1.3970789,0,0,-1.3970789,445.12247,795.83091)">
      <path
         d="m 0,0 0,-9.954 -24.338,0 0,-89.221 -30.514,0 0,89.221 -24.485,0 0,9.954 L 0,0 Z"
         style="fill:#b74138;fill-opacity:1;fill-rule:nonzero;stroke:none"
         id="path34"
         inkscape:connector-curvature="0" />
    </g>
    <g
       id="g36"
       transform="matrix(1.3970789,0,0,-1.3970789,445.12247,795.83091)">
      <path
         d="m 0,0 0,-9.954 -24.338,0 0,-89.221 -30.514,0 0,89.221 -24.485,0 0,9.954 L 0,0 Z"
         style="fill:none;stroke:#b74138;stroke-width:1;stroke-linecap:butt;stroke-linejoin:miter;stroke-miterlimit:4;stroke-dasharray:none;stroke-opacity:1"
         id="path38"
         inkscape:connector-curvature="0" />
    </g>
    <g
       id="g40"
       transform="matrix(1.3970789,0,0,-1.3970789,632.86857,701.4557)">
      <path
         d="m 0,0 -74.08,-109.982 31.603,-56.745 -31.968,0 -19.035,34.876 -21.141,-34.876 -12.934,0 27.971,45.336 -29.932,53.839 31.895,0 17.728,-32.332 L -28.375,-9.97 0,0 Z"
         style="fill:#b74138;fill-opacity:1;fill-rule:nonzero;stroke:none"
         id="path42"
         inkscape:connector-curvature="0" />
    </g>
    <path
       inkscape:connector-curvature="0"
       id="path46"
       style="fill:none;stroke:#b74138;stroke-width:1.39707887;stroke-linecap:butt;stroke-linejoin:miter;stroke-miterlimit:4;stroke-dasharray:none;stroke-opacity:1"
       d="m 632.86857,701.4557 -103.4956,153.65356 44.1519,79.27724 -44.6618,0 -26.5934,-48.72454 -29.5356,48.72454 -18.0699,0 39.0777,-63.33794 -41.8173,-75.21737 44.5598,0 24.7674,45.17037 71.9747,-125.61696 39.6421,-13.9289 z" />
    <path
       d="m 621.37067,934.3864 -40.1968,0 0,-138.55536 40.1968,0 0,138.55536 z"
       style="fill:#b74138;fill-opacity:1;fill-rule:nonzero;stroke:#b74138;stroke-width:1.39707887;stroke-linecap:butt;stroke-linejoin:miter;stroke-miterlimit:4;stroke-dasharray:none;stroke-opacity:1"
       id="path48"
       inkscape:connector-curvature="0" />
  </g>
</svg>
